<?xml version="1.0" encoding="UTF-8" standalone="no"?>
<!DOCTYPE svg PUBLIC "-//W3C//DTD SVG 1.1//EN" "http://www.w3.org/Graphics/SVG/1.1/DTD/svg11.dtd">
<svg width="100%" height="100%" viewBox="0 0 1024 1024" version="1.1" xmlns="http://www.w3.org/2000/svg" xmlns:xlink="http://www.w3.org/1999/xlink" xml:space="preserve" xmlns:serif="http://www.serif.com/" style="fill-rule:evenodd;clip-rule:evenodd;stroke-linejoin:round;stroke-miterlimit:2;">
    <g transform="matrix(0.24,0,0,0.24,0,0)">
        <g transform="matrix(4.16667,0,0,4.16667,1856.15,2662.42)">
            <g id="レイヤー-1" serif:id="レイヤー 1">
                <path d="M0,-258.048C-39.919,-204.8 -66.532,-120.832 -66.532,-59.392C-66.532,8.193 -42.99,41.985 5.118,41.985C47.084,41.985 88.028,17.409 121.806,-30.719C159.678,-83.967 179.126,-163.84 179.126,-239.616C179.126,-287.744 149.442,-317.44 106.452,-317.44C67.556,-317.44 29.684,-296.96 0,-258.048M221.093,-356.352C225.187,-373.76 239.517,-379.904 256.918,-379.904C259.988,-379.904 264.083,-379.904 268.177,-378.881C285.577,-376.833 296.837,-365.569 296.837,-350.209C296.837,-347.136 296.837,-344.064 295.813,-340.992L206.763,-2.048C204.715,6.144 203.69,18.432 203.69,24.577C203.69,36.865 211.88,45.056 227.233,45.056C255.894,45.056 297.86,25.6 333.686,-11.263C377.698,-57.343 403.288,-122.88 403.288,-195.584C403.288,-364.545 283.53,-473.089 98.264,-473.089C-106.452,-473.089 -266.129,-317.44 -266.129,-118.784C-266.129,77.825 -125.899,215.04 76.769,215.04C164.796,215.04 247.705,189.441 316.284,144.385C321.403,140.288 326.521,139.265 332.662,139.265C346.992,139.265 360.298,149.504 367.463,160.769C371.558,167.937 373.604,176.128 373.604,183.296C373.604,194.561 368.486,204.801 358.251,211.969C273.295,263.169 184.243,286.721 67.556,286.721C-55.272,286.721 -156.607,245.761 -229.28,174.08C-302.978,101.376 -345.967,-1.024 -345.967,-120.832C-345.967,-360.448 -156.607,-544.769 98.264,-544.769C328.567,-544.769 479.033,-404.481 479.033,-201.728C479.033,-108.544 449.349,-28.672 392.029,32.768C343.921,84.993 277.389,117.76 214.951,117.76C150.466,117.76 135.111,88.065 135.111,50.176L135.111,43.008C94.169,93.185 53.226,112.641 -8.188,112.641C-91.098,112.641 -148.418,47.105 -148.418,-57.343C-148.418,-232.448 -37.872,-385.025 104.405,-385.025C159.678,-385.025 196.526,-362.496 211.88,-318.465L221.093,-356.352Z" style="fill:rgb(0,134,255);fill-rule:nonzero;"/>
            </g>
        </g>
    </g>
</svg>
